<svg xmlns="http://www.w3.org/2000/svg" viewBox="0 0 512 512" width="512" height="512">
  <defs>
    <radialGradient id="bg" cx="50%" cy="50%" r="50%">
      <stop offset="0%" stop-color="#1e1e2e"/>
      <stop offset="100%" stop-color="#141420"/>
    </radialGradient>
  </defs>

  <!-- Background -->
  <circle cx="256" cy="256" r="250" fill="url(#bg)"/>

  <!-- LEFT SIDE fractals (original) -->
  <g>
    <!-- NEON GREEN spokes -->
    <g stroke="#39ff14" fill="none" stroke-linecap="round">
      <line x1="256" y1="256" x2="256" y2="75" stroke-width="3.5" opacity="0.95"/>
      <line x1="256" y1="180" x2="225" y2="120" stroke-width="2" opacity="0.8"/>
      <line x1="225" y1="120" x2="205" y2="82" stroke-width="1.3" opacity="0.6"/>
      <line x1="205" y1="82" x2="190" y2="58" stroke-width="0.8" opacity="0.45"/>
      <line x1="225" y1="120" x2="212" y2="95" stroke-width="0.8" opacity="0.45"/>
      <line x1="256" y1="180" x2="280" y2="125" stroke-width="2" opacity="0.8"/>
      <line x1="280" y1="125" x2="298" y2="90" stroke-width="1.3" opacity="0.6"/>
      <line x1="256" y1="130" x2="238" y2="88" stroke-width="1.3" opacity="0.6"/>
      <line x1="238" y1="88" x2="225" y2="62" stroke-width="0.7" opacity="0.4"/>
      <line x1="256" y1="130" x2="270" y2="90" stroke-width="1.3" opacity="0.6"/>
      <line x1="270" y1="90" x2="282" y2="65" stroke-width="0.7" opacity="0.4"/>
      <line x1="256" y1="256" x2="72" y2="275" stroke-width="3.5" opacity="0.95"/>
      <line x1="160" y1="256" x2="110" y2="238" stroke-width="2" opacity="0.8"/>
      <line x1="110" y1="238" x2="78" y2="212" stroke-width="1.3" opacity="0.6"/>
      <line x1="78" y1="212" x2="58" y2="195" stroke-width="0.7" opacity="0.4"/>
      <line x1="110" y1="238" x2="82" y2="235" stroke-width="0.9" opacity="0.5"/>
      <line x1="160" y1="256" x2="110" y2="312" stroke-width="2" opacity="0.8"/>
      <line x1="110" y1="312" x2="78" y2="340" stroke-width="1.3" opacity="0.6"/>
      <line x1="78" y1="340" x2="58" y2="358" stroke-width="0.7" opacity="0.4"/>
      <line x1="120" y1="256" x2="88" y2="258" stroke-width="1.3" opacity="0.6"/>
      <line x1="120" y1="256" x2="88" y2="292" stroke-width="1.3" opacity="0.6"/>
      <line x1="88" y1="258" x2="65" y2="245" stroke-width="0.7" opacity="0.4"/>
      <line x1="88" y1="292" x2="65" y2="305" stroke-width="0.7" opacity="0.4"/>
    </g>

    <!-- NEON RED spokes -->
    <g stroke="#ff1744" fill="none" stroke-linecap="round">
      <line x1="256" y1="256" x2="100" y2="118" stroke-width="3.5" opacity="0.9"/>
      <line x1="178" y1="197" x2="118" y2="178" stroke-width="2" opacity="0.75"/>
      <line x1="118" y1="178" x2="78" y2="168" stroke-width="1.3" opacity="0.55"/>
      <line x1="78" y1="168" x2="52" y2="160" stroke-width="0.7" opacity="0.4"/>
      <line x1="118" y1="178" x2="95" y2="150" stroke-width="1.2" opacity="0.55"/>
      <line x1="95" y1="150" x2="72" y2="128" stroke-width="0.7" opacity="0.4"/>
      <line x1="178" y1="197" x2="145" y2="142" stroke-width="2" opacity="0.75"/>
      <line x1="145" y1="142" x2="120" y2="100" stroke-width="1.3" opacity="0.55"/>
      <line x1="120" y1="100" x2="105" y2="72" stroke-width="0.7" opacity="0.4"/>
      <line x1="145" y1="142" x2="118" y2="130" stroke-width="0.9" opacity="0.45"/>
      <line x1="140" y1="160" x2="105" y2="155" stroke-width="1" opacity="0.5"/>
      <line x1="105" y1="155" x2="78" y2="148" stroke-width="0.7" opacity="0.4"/>
      <line x1="256" y1="256" x2="100" y2="432" stroke-width="3.5" opacity="0.9"/>
      <line x1="178" y1="353" x2="118" y2="372" stroke-width="2" opacity="0.75"/>
      <line x1="118" y1="372" x2="78" y2="385" stroke-width="1.3" opacity="0.55"/>
      <line x1="78" y1="385" x2="52" y2="395" stroke-width="0.7" opacity="0.4"/>
      <line x1="118" y1="372" x2="95" y2="400" stroke-width="1.2" opacity="0.55"/>
      <line x1="95" y1="400" x2="72" y2="425" stroke-width="0.7" opacity="0.4"/>
      <line x1="178" y1="353" x2="145" y2="408" stroke-width="2" opacity="0.75"/>
      <line x1="145" y1="408" x2="120" y2="448" stroke-width="1.3" opacity="0.55"/>
      <line x1="120" y1="448" x2="105" y2="472" stroke-width="0.7" opacity="0.4"/>
      <line x1="145" y1="408" x2="118" y2="422" stroke-width="0.9" opacity="0.45"/>
      <line x1="140" y1="390" x2="105" y2="398" stroke-width="1" opacity="0.5"/>
      <line x1="105" y1="398" x2="78" y2="405" stroke-width="0.7" opacity="0.4"/>
    </g>

    <!-- NEON YELLOW spokes -->
    <g stroke="#ffea00" fill="none" stroke-linecap="round">
      <line x1="256" y1="256" x2="155" y2="88" stroke-width="2.8" opacity="0.9"/>
      <line x1="205" y1="180" x2="158" y2="130" stroke-width="1.8" opacity="0.7"/>
      <line x1="158" y1="130" x2="128" y2="95" stroke-width="1.1" opacity="0.5"/>
      <line x1="128" y1="95" x2="108" y2="70" stroke-width="0.7" opacity="0.38"/>
      <line x1="158" y1="130" x2="140" y2="105" stroke-width="0.9" opacity="0.45"/>
      <line x1="205" y1="180" x2="175" y2="118" stroke-width="1.8" opacity="0.7"/>
      <line x1="175" y1="118" x2="155" y2="78" stroke-width="1.1" opacity="0.5"/>
      <line x1="180" y1="145" x2="152" y2="112" stroke-width="0.9" opacity="0.45"/>
      <line x1="256" y1="256" x2="72" y2="365" stroke-width="2.8" opacity="0.9"/>
      <line x1="165" y1="318" x2="108" y2="348" stroke-width="1.8" opacity="0.7"/>
      <line x1="108" y1="348" x2="72" y2="372" stroke-width="1.1" opacity="0.5"/>
      <line x1="72" y1="372" x2="50" y2="388" stroke-width="0.7" opacity="0.38"/>
      <line x1="108" y1="348" x2="85" y2="365" stroke-width="0.9" opacity="0.45"/>
      <line x1="165" y1="318" x2="115" y2="365" stroke-width="1.8" opacity="0.7"/>
      <line x1="115" y1="365" x2="82" y2="400" stroke-width="1.1" opacity="0.5"/>
      <line x1="130" y1="342" x2="95" y2="372" stroke-width="0.9" opacity="0.45"/>
    </g>

    <!-- HOT ORANGE spokes -->
    <g stroke="#ff6d00" fill="none" stroke-linecap="round">
      <line x1="256" y1="256" x2="68" y2="185" stroke-width="2.8" opacity="0.9"/>
      <line x1="162" y1="230" x2="105" y2="200" stroke-width="1.8" opacity="0.7"/>
      <line x1="105" y1="200" x2="68" y2="180" stroke-width="1.1" opacity="0.5"/>
      <line x1="68" y1="180" x2="45" y2="168" stroke-width="0.7" opacity="0.38"/>
      <line x1="105" y1="200" x2="80" y2="185" stroke-width="0.9" opacity="0.45"/>
      <line x1="162" y1="230" x2="100" y2="218" stroke-width="1.8" opacity="0.7"/>
      <line x1="100" y1="218" x2="62" y2="210" stroke-width="1.1" opacity="0.5"/>
      <line x1="125" y1="222" x2="92" y2="208" stroke-width="0.9" opacity="0.45"/>
      <line x1="256" y1="256" x2="155" y2="462" stroke-width="2.8" opacity="0.9"/>
      <line x1="205" y1="370" x2="158" y2="420" stroke-width="1.8" opacity="0.7"/>
      <line x1="158" y1="420" x2="128" y2="455" stroke-width="1.1" opacity="0.5"/>
      <line x1="128" y1="455" x2="108" y2="478" stroke-width="0.7" opacity="0.38"/>
      <line x1="158" y1="420" x2="140" y2="448" stroke-width="0.9" opacity="0.45"/>
      <line x1="205" y1="370" x2="175" y2="432" stroke-width="1.8" opacity="0.7"/>
      <line x1="175" y1="432" x2="155" y2="468" stroke-width="1.1" opacity="0.5"/>
      <line x1="180" y1="405" x2="152" y2="440" stroke-width="0.9" opacity="0.45"/>
    </g>

    <!-- NEON PINK spokes -->
    <g stroke="#ff0080" fill="none" stroke-linecap="round">
      <line x1="256" y1="256" x2="62" y2="228" stroke-width="2.2" opacity="0.85"/>
      <line x1="155" y1="252" x2="95" y2="232" stroke-width="1.5" opacity="0.6"/>
      <line x1="95" y1="232" x2="58" y2="220" stroke-width="1" opacity="0.45"/>
      <line x1="155" y1="252" x2="108" y2="248" stroke-width="1.5" opacity="0.6"/>
      <line x1="108" y1="248" x2="72" y2="245" stroke-width="0.9" opacity="0.42"/>
      <line x1="256" y1="256" x2="256" y2="475" stroke-width="3.5" opacity="0.9"/>
      <line x1="256" y1="380" x2="225" y2="435" stroke-width="2" opacity="0.75"/>
      <line x1="225" y1="435" x2="205" y2="468" stroke-width="1.3" opacity="0.55"/>
      <line x1="205" y1="468" x2="190" y2="490" stroke-width="0.7" opacity="0.4"/>
      <line x1="256" y1="380" x2="280" y2="430" stroke-width="2" opacity="0.75"/>
      <line x1="256" y1="420" x2="238" y2="460" stroke-width="1.3" opacity="0.55"/>
      <line x1="238" y1="460" x2="225" y2="485" stroke-width="0.7" opacity="0.4"/>
      <line x1="256" y1="420" x2="270" y2="458" stroke-width="1.3" opacity="0.55"/>
      <line x1="256" y1="256" x2="62" y2="322" stroke-width="2.2" opacity="0.85"/>
      <line x1="155" y1="298" x2="95" y2="318" stroke-width="1.5" opacity="0.6"/>
      <line x1="95" y1="318" x2="58" y2="332" stroke-width="1" opacity="0.45"/>
      <line x1="155" y1="298" x2="108" y2="305" stroke-width="1.5" opacity="0.6"/>
      <line x1="108" y1="305" x2="72" y2="310" stroke-width="0.9" opacity="0.42"/>
    </g>

    <!-- LIME GREEN extra fill spokes -->
    <g stroke="#76ff03" fill="none" stroke-linecap="round">
      <line x1="256" y1="256" x2="82" y2="148" stroke-width="1.8" opacity="0.7"/>
      <line x1="168" y1="212" x2="115" y2="172" stroke-width="1.2" opacity="0.5"/>
      <line x1="115" y1="172" x2="82" y2="148" stroke-width="0.8" opacity="0.38"/>
      <line x1="256" y1="256" x2="82" y2="402" stroke-width="1.8" opacity="0.7"/>
      <line x1="168" y1="338" x2="115" y2="378" stroke-width="1.2" opacity="0.5"/>
      <line x1="115" y1="378" x2="82" y2="402" stroke-width="0.8" opacity="0.38"/>
    </g>

    <!-- Left-side dots -->
    <g>
      <circle cx="190" cy="58" r="2.5" fill="#39ff14" opacity="0.6"/>
      <circle cx="298" cy="90" r="2.5" fill="#39ff14" opacity="0.6"/>
      <circle cx="225" cy="62" r="2" fill="#39ff14" opacity="0.5"/>
      <circle cx="282" cy="65" r="2" fill="#39ff14" opacity="0.5"/>
      <circle cx="58" cy="195" r="2" fill="#39ff14" opacity="0.5"/>
      <circle cx="58" cy="358" r="2" fill="#39ff14" opacity="0.5"/>
      <circle cx="65" cy="245" r="2" fill="#39ff14" opacity="0.5"/>
      <circle cx="65" cy="305" r="2" fill="#39ff14" opacity="0.5"/>
      <circle cx="52" cy="160" r="2.5" fill="#ff1744" opacity="0.6"/>
      <circle cx="72" cy="128" r="2" fill="#ff1744" opacity="0.5"/>
      <circle cx="105" cy="72" r="2.5" fill="#ff1744" opacity="0.6"/>
      <circle cx="52" cy="395" r="2.5" fill="#ff1744" opacity="0.6"/>
      <circle cx="72" cy="425" r="2" fill="#ff1744" opacity="0.5"/>
      <circle cx="105" cy="472" r="2.5" fill="#ff1744" opacity="0.6"/>
      <circle cx="108" cy="70" r="2.5" fill="#ffea00" opacity="0.6"/>
      <circle cx="155" cy="78" r="2" fill="#ffea00" opacity="0.5"/>
      <circle cx="50" cy="388" r="2.5" fill="#ffea00" opacity="0.6"/>
      <circle cx="82" cy="400" r="2" fill="#ffea00" opacity="0.5"/>
      <circle cx="45" cy="168" r="2.5" fill="#ff6d00" opacity="0.6"/>
      <circle cx="108" cy="478" r="2.5" fill="#ff6d00" opacity="0.6"/>
      <circle cx="155" cy="468" r="2" fill="#ff6d00" opacity="0.5"/>
      <circle cx="190" cy="490" r="2" fill="#ff0080" opacity="0.5"/>
      <circle cx="225" cy="485" r="2" fill="#ff0080" opacity="0.5"/>
      <circle cx="58" cy="220" r="2" fill="#ff0080" opacity="0.5"/>
      <circle cx="58" cy="332" r="2" fill="#ff0080" opacity="0.5"/>
      <circle cx="82" cy="148" r="2" fill="#76ff03" opacity="0.5"/>
      <circle cx="82" cy="402" r="2" fill="#76ff03" opacity="0.5"/>
    </g>
  </g>

  <!-- RIGHT SIDE fractals (mirrored: x -> 512 - x) -->
  <g>
    <!-- NEON GREEN mirrored -->
    <g stroke="#39ff14" fill="none" stroke-linecap="round">
      <line x1="256" y1="256" x2="256" y2="75" stroke-width="3.5" opacity="0.95"/>
      <line x1="256" y1="180" x2="287" y2="120" stroke-width="2" opacity="0.8"/>
      <line x1="287" y1="120" x2="307" y2="82" stroke-width="1.3" opacity="0.6"/>
      <line x1="307" y1="82" x2="322" y2="58" stroke-width="0.8" opacity="0.45"/>
      <line x1="287" y1="120" x2="300" y2="95" stroke-width="0.8" opacity="0.45"/>
      <line x1="256" y1="180" x2="232" y2="125" stroke-width="2" opacity="0.8"/>
      <line x1="232" y1="125" x2="214" y2="90" stroke-width="1.3" opacity="0.6"/>
      <line x1="256" y1="130" x2="274" y2="88" stroke-width="1.3" opacity="0.6"/>
      <line x1="274" y1="88" x2="287" y2="62" stroke-width="0.7" opacity="0.4"/>
      <line x1="256" y1="130" x2="242" y2="90" stroke-width="1.3" opacity="0.6"/>
      <line x1="242" y1="90" x2="230" y2="65" stroke-width="0.7" opacity="0.4"/>
      <line x1="256" y1="256" x2="440" y2="275" stroke-width="3.5" opacity="0.95"/>
      <line x1="352" y1="256" x2="402" y2="238" stroke-width="2" opacity="0.8"/>
      <line x1="402" y1="238" x2="434" y2="212" stroke-width="1.3" opacity="0.6"/>
      <line x1="434" y1="212" x2="454" y2="195" stroke-width="0.7" opacity="0.4"/>
      <line x1="402" y1="238" x2="430" y2="235" stroke-width="0.9" opacity="0.5"/>
      <line x1="352" y1="256" x2="402" y2="312" stroke-width="2" opacity="0.8"/>
      <line x1="402" y1="312" x2="434" y2="340" stroke-width="1.3" opacity="0.6"/>
      <line x1="434" y1="340" x2="454" y2="358" stroke-width="0.7" opacity="0.4"/>
      <line x1="392" y1="256" x2="424" y2="258" stroke-width="1.3" opacity="0.6"/>
      <line x1="392" y1="256" x2="424" y2="292" stroke-width="1.3" opacity="0.6"/>
      <line x1="424" y1="258" x2="447" y2="245" stroke-width="0.7" opacity="0.4"/>
      <line x1="424" y1="292" x2="447" y2="305" stroke-width="0.7" opacity="0.4"/>
    </g>

    <!-- NEON RED mirrored -->
    <g stroke="#ff1744" fill="none" stroke-linecap="round">
      <line x1="256" y1="256" x2="412" y2="118" stroke-width="3.5" opacity="0.9"/>
      <line x1="334" y1="197" x2="394" y2="178" stroke-width="2" opacity="0.75"/>
      <line x1="394" y1="178" x2="434" y2="168" stroke-width="1.3" opacity="0.55"/>
      <line x1="434" y1="168" x2="460" y2="160" stroke-width="0.7" opacity="0.4"/>
      <line x1="394" y1="178" x2="417" y2="150" stroke-width="1.2" opacity="0.55"/>
      <line x1="417" y1="150" x2="440" y2="128" stroke-width="0.7" opacity="0.4"/>
      <line x1="334" y1="197" x2="367" y2="142" stroke-width="2" opacity="0.75"/>
      <line x1="367" y1="142" x2="392" y2="100" stroke-width="1.3" opacity="0.55"/>
      <line x1="392" y1="100" x2="407" y2="72" stroke-width="0.7" opacity="0.4"/>
      <line x1="367" y1="142" x2="394" y2="130" stroke-width="0.9" opacity="0.45"/>
      <line x1="372" y1="160" x2="407" y2="155" stroke-width="1" opacity="0.5"/>
      <line x1="407" y1="155" x2="434" y2="148" stroke-width="0.7" opacity="0.4"/>
      <line x1="256" y1="256" x2="412" y2="432" stroke-width="3.5" opacity="0.9"/>
      <line x1="334" y1="353" x2="394" y2="372" stroke-width="2" opacity="0.75"/>
      <line x1="394" y1="372" x2="434" y2="385" stroke-width="1.3" opacity="0.55"/>
      <line x1="434" y1="385" x2="460" y2="395" stroke-width="0.7" opacity="0.4"/>
      <line x1="394" y1="372" x2="417" y2="400" stroke-width="1.2" opacity="0.55"/>
      <line x1="417" y1="400" x2="440" y2="425" stroke-width="0.7" opacity="0.4"/>
      <line x1="334" y1="353" x2="367" y2="408" stroke-width="2" opacity="0.75"/>
      <line x1="367" y1="408" x2="392" y2="448" stroke-width="1.3" opacity="0.55"/>
      <line x1="392" y1="448" x2="407" y2="472" stroke-width="0.7" opacity="0.4"/>
      <line x1="367" y1="408" x2="394" y2="422" stroke-width="0.9" opacity="0.45"/>
      <line x1="372" y1="390" x2="407" y2="398" stroke-width="1" opacity="0.5"/>
      <line x1="407" y1="398" x2="434" y2="405" stroke-width="0.7" opacity="0.4"/>
    </g>

    <!-- NEON YELLOW mirrored -->
    <g stroke="#ffea00" fill="none" stroke-linecap="round">
      <line x1="256" y1="256" x2="357" y2="88" stroke-width="2.8" opacity="0.9"/>
      <line x1="307" y1="180" x2="354" y2="130" stroke-width="1.8" opacity="0.7"/>
      <line x1="354" y1="130" x2="384" y2="95" stroke-width="1.1" opacity="0.5"/>
      <line x1="384" y1="95" x2="404" y2="70" stroke-width="0.7" opacity="0.38"/>
      <line x1="354" y1="130" x2="372" y2="105" stroke-width="0.9" opacity="0.45"/>
      <line x1="307" y1="180" x2="337" y2="118" stroke-width="1.8" opacity="0.7"/>
      <line x1="337" y1="118" x2="357" y2="78" stroke-width="1.1" opacity="0.5"/>
      <line x1="332" y1="145" x2="360" y2="112" stroke-width="0.9" opacity="0.45"/>
      <line x1="256" y1="256" x2="440" y2="365" stroke-width="2.8" opacity="0.9"/>
      <line x1="347" y1="318" x2="404" y2="348" stroke-width="1.8" opacity="0.7"/>
      <line x1="404" y1="348" x2="440" y2="372" stroke-width="1.1" opacity="0.5"/>
      <line x1="440" y1="372" x2="462" y2="388" stroke-width="0.7" opacity="0.38"/>
      <line x1="404" y1="348" x2="427" y2="365" stroke-width="0.9" opacity="0.45"/>
      <line x1="347" y1="318" x2="397" y2="365" stroke-width="1.8" opacity="0.7"/>
      <line x1="397" y1="365" x2="430" y2="400" stroke-width="1.1" opacity="0.5"/>
      <line x1="382" y1="342" x2="417" y2="372" stroke-width="0.9" opacity="0.45"/>
    </g>

    <!-- HOT ORANGE mirrored -->
    <g stroke="#ff6d00" fill="none" stroke-linecap="round">
      <line x1="256" y1="256" x2="444" y2="185" stroke-width="2.8" opacity="0.9"/>
      <line x1="350" y1="230" x2="407" y2="200" stroke-width="1.8" opacity="0.7"/>
      <line x1="407" y1="200" x2="444" y2="180" stroke-width="1.1" opacity="0.5"/>
      <line x1="444" y1="180" x2="467" y2="168" stroke-width="0.7" opacity="0.38"/>
      <line x1="407" y1="200" x2="432" y2="185" stroke-width="0.9" opacity="0.45"/>
      <line x1="350" y1="230" x2="412" y2="218" stroke-width="1.8" opacity="0.7"/>
      <line x1="412" y1="218" x2="450" y2="210" stroke-width="1.1" opacity="0.5"/>
      <line x1="387" y1="222" x2="420" y2="208" stroke-width="0.9" opacity="0.45"/>
      <line x1="256" y1="256" x2="357" y2="462" stroke-width="2.8" opacity="0.9"/>
      <line x1="307" y1="370" x2="354" y2="420" stroke-width="1.8" opacity="0.7"/>
      <line x1="354" y1="420" x2="384" y2="455" stroke-width="1.1" opacity="0.5"/>
      <line x1="384" y1="455" x2="404" y2="478" stroke-width="0.7" opacity="0.38"/>
      <line x1="354" y1="420" x2="372" y2="448" stroke-width="0.9" opacity="0.45"/>
      <line x1="307" y1="370" x2="337" y2="432" stroke-width="1.8" opacity="0.7"/>
      <line x1="337" y1="432" x2="357" y2="468" stroke-width="1.1" opacity="0.5"/>
      <line x1="332" y1="405" x2="360" y2="440" stroke-width="0.9" opacity="0.45"/>
    </g>

    <!-- NEON PINK mirrored -->
    <g stroke="#ff0080" fill="none" stroke-linecap="round">
      <line x1="256" y1="256" x2="450" y2="228" stroke-width="2.2" opacity="0.85"/>
      <line x1="357" y1="252" x2="417" y2="232" stroke-width="1.5" opacity="0.6"/>
      <line x1="417" y1="232" x2="454" y2="220" stroke-width="1" opacity="0.45"/>
      <line x1="357" y1="252" x2="404" y2="248" stroke-width="1.5" opacity="0.6"/>
      <line x1="404" y1="248" x2="440" y2="245" stroke-width="0.9" opacity="0.42"/>
      <line x1="256" y1="256" x2="256" y2="475" stroke-width="3.5" opacity="0.9"/>
      <line x1="256" y1="380" x2="287" y2="435" stroke-width="2" opacity="0.75"/>
      <line x1="287" y1="435" x2="307" y2="468" stroke-width="1.3" opacity="0.55"/>
      <line x1="307" y1="468" x2="322" y2="490" stroke-width="0.7" opacity="0.4"/>
      <line x1="256" y1="380" x2="232" y2="430" stroke-width="2" opacity="0.75"/>
      <line x1="256" y1="420" x2="274" y2="460" stroke-width="1.3" opacity="0.55"/>
      <line x1="274" y1="460" x2="287" y2="485" stroke-width="0.7" opacity="0.4"/>
      <line x1="256" y1="420" x2="242" y2="458" stroke-width="1.3" opacity="0.55"/>
      <line x1="256" y1="256" x2="450" y2="322" stroke-width="2.2" opacity="0.85"/>
      <line x1="357" y1="298" x2="417" y2="318" stroke-width="1.5" opacity="0.6"/>
      <line x1="417" y1="318" x2="454" y2="332" stroke-width="1" opacity="0.45"/>
      <line x1="357" y1="298" x2="404" y2="305" stroke-width="1.5" opacity="0.6"/>
      <line x1="404" y1="305" x2="440" y2="310" stroke-width="0.9" opacity="0.42"/>
    </g>

    <!-- LIME GREEN mirrored -->
    <g stroke="#76ff03" fill="none" stroke-linecap="round">
      <line x1="256" y1="256" x2="430" y2="148" stroke-width="1.8" opacity="0.7"/>
      <line x1="344" y1="212" x2="397" y2="172" stroke-width="1.2" opacity="0.5"/>
      <line x1="397" y1="172" x2="430" y2="148" stroke-width="0.8" opacity="0.38"/>
      <line x1="256" y1="256" x2="430" y2="402" stroke-width="1.8" opacity="0.7"/>
      <line x1="344" y1="338" x2="397" y2="378" stroke-width="1.2" opacity="0.5"/>
      <line x1="397" y1="378" x2="430" y2="402" stroke-width="0.8" opacity="0.38"/>
    </g>

    <!-- Right-side dots (mirrored) -->
    <g>
      <circle cx="322" cy="58" r="2.5" fill="#39ff14" opacity="0.6"/>
      <circle cx="214" cy="90" r="2.5" fill="#39ff14" opacity="0.6"/>
      <circle cx="287" cy="62" r="2" fill="#39ff14" opacity="0.5"/>
      <circle cx="230" cy="65" r="2" fill="#39ff14" opacity="0.5"/>
      <circle cx="454" cy="195" r="2" fill="#39ff14" opacity="0.5"/>
      <circle cx="454" cy="358" r="2" fill="#39ff14" opacity="0.5"/>
      <circle cx="447" cy="245" r="2" fill="#39ff14" opacity="0.5"/>
      <circle cx="447" cy="305" r="2" fill="#39ff14" opacity="0.5"/>
      <circle cx="460" cy="160" r="2.5" fill="#ff1744" opacity="0.6"/>
      <circle cx="440" cy="128" r="2" fill="#ff1744" opacity="0.5"/>
      <circle cx="407" cy="72" r="2.5" fill="#ff1744" opacity="0.6"/>
      <circle cx="460" cy="395" r="2.5" fill="#ff1744" opacity="0.6"/>
      <circle cx="440" cy="425" r="2" fill="#ff1744" opacity="0.5"/>
      <circle cx="407" cy="472" r="2.5" fill="#ff1744" opacity="0.6"/>
      <circle cx="404" cy="70" r="2.5" fill="#ffea00" opacity="0.6"/>
      <circle cx="357" cy="78" r="2" fill="#ffea00" opacity="0.5"/>
      <circle cx="462" cy="388" r="2.5" fill="#ffea00" opacity="0.6"/>
      <circle cx="430" cy="400" r="2" fill="#ffea00" opacity="0.5"/>
      <circle cx="467" cy="168" r="2.5" fill="#ff6d00" opacity="0.6"/>
      <circle cx="404" cy="478" r="2.5" fill="#ff6d00" opacity="0.6"/>
      <circle cx="357" cy="468" r="2" fill="#ff6d00" opacity="0.5"/>
      <circle cx="322" cy="490" r="2" fill="#ff0080" opacity="0.5"/>
      <circle cx="287" cy="485" r="2" fill="#ff0080" opacity="0.5"/>
      <circle cx="454" cy="220" r="2" fill="#ff0080" opacity="0.5"/>
      <circle cx="454" cy="332" r="2" fill="#ff0080" opacity="0.5"/>
      <circle cx="430" cy="148" r="2" fill="#76ff03" opacity="0.5"/>
      <circle cx="430" cy="402" r="2" fill="#76ff03" opacity="0.5"/>
    </g>
  </g>

  <!-- Center circle with RPS text -->
  <circle cx="256" cy="256" r="28" fill="#1e1e2e" stroke="#fff" stroke-width="2" opacity="0.95"/>
  <text x="256" y="264" text-anchor="middle" font-family="Arial, Helvetica, sans-serif" font-size="20" font-weight="bold" fill="#fff" letter-spacing="2">RPS</text>
</svg>